<svg width="180" height="180" viewBox="0 0 180 180" fill="none" xmlns="http://www.w3.org/2000/svg">
<circle cx="90" cy="90" r="90" fill="#FEFAF8"/>
<path d="M48.45 75.6C48.0347 75.1544 47.5314 74.7999 46.9719 74.5589C46.4125 74.3179 45.8091 74.1957 45.2 74.2C43.15 74.2 41.6 75.15 40.6 77.1C39.6 79.05 39.85 80.9 41.45 82.65C47.35 87.95 51.1 91.7 52.7 93.9C54.75 96.7 55.75 100.8 55.75 106.1C55.75 112.65 58.25 117.5 63.25 120.85C66.05 123.05 69.1 124.7 72.5 125.8V106.35C72.5 101.65 70.85 97.75 67.7 94.6M112.3 94.85C109.2 97.95 107.5 101.8 107.5 106.35V126C112.3 124.3 116.3 121.65 119.6 118.15C122.85 114.65 124.5 110.8 124.5 106.1C124.5 100.45 125.45 96.4 127.35 93.9C127.8 93.1 128.65 92.1 130 90.85C131.15 89.6 132.35 88.4 133.55 87.3C134.7 86.25 135.85 85.15 136.95 84.05L138.6 82.65C139.047 82.2252 139.402 81.7131 139.643 81.1454C139.884 80.5777 140.005 79.9666 140 79.35C140 77.95 139.55 76.7 138.6 75.7C137.65 74.7 136.5 74.2 135 74.2C133.5 74.2 132.5 74.65 131.55 75.6M90 130C93.45 130 96.8 129.55 100 128.6V110.75C100 107.8 99.1 105.5 97.05 103.3C95 101.1 92.65 100 90 100C87.35 100 85 101 83.1 103.05C81.1 105 80 107.3 80 110.3V128.6C83.2 129.55 86.55 130 90 130ZM75 72.5C75 76.65 71.65 80 67.5 80C63.35 80 60 76.65 60 72.5C60 68.35 63.35 65 67.5 65C71.65 65 75 68.35 75 72.5ZM120 72.5C120 76.65 116.65 80 112.5 80C108.35 80 105 76.65 105 72.5C105 68.35 108.35 65 112.5 65C116.65 65 120 68.35 120 72.5ZM97.5 57.5C97.5 61.65 94.15 65 90 65C85.85 65 82.5 61.65 82.5 57.5C82.5 53.35 85.85 50 90 50C94.15 50 97.5 53.35 97.5 57.5ZM97.5 85C97.5 89.15 94.15 92.5 90 92.5C85.85 92.5 82.5 89.15 82.5 85C82.5 80.85 85.85 77.5 90 77.5C94.15 77.5 97.5 80.85 97.5 85Z" fill="#49416D"/>
</svg>
